<?xml version="1.0" encoding="UTF-8" standalone="no"?>
<!DOCTYPE svg PUBLIC "-//W3C//DTD SVG 1.1//EN" "http://www.w3.org/Graphics/SVG/1.1/DTD/svg11.dtd">
<svg width="100%" height="100%" viewBox="0 0 100 100" version="1.1" xmlns="http://www.w3.org/2000/svg" xmlns:xlink="http://www.w3.org/1999/xlink" xml:space="preserve" xmlns:serif="http://www.serif.com/" style="fill-rule:evenodd;clip-rule:evenodd;stroke-linejoin:round;stroke-miterlimit:2;">
    <g transform="matrix(1.1236,0,0,1.1236,-8.98876,-6.74157)">
        <path d="M52.5,6C77.06,6 97,25.94 97,50.5C97,75.06 77.06,95 52.5,95C27.94,95 8,75.06 8,50.5C8,25.94 27.94,6 52.5,6ZM52.5,9.707C75.014,9.707 93.293,27.986 93.293,50.5C93.293,73.014 75.014,91.293 52.5,91.293C29.986,91.293 11.707,73.014 11.707,50.5C11.707,27.986 29.986,9.707 52.5,9.707Z" style="fill:rgb(183,69,71);"/>
    </g>
    <g transform="matrix(6.12323e-17,1,-1,6.12323e-17,96,-1.5)">
        <path d="M51.5,22L71,61L32,61L51.5,22Z" style="fill:rgb(183,69,71);"/>
    </g>
</svg>
