<?xml version="1.0" encoding="UTF-8" standalone="no"?>
<!DOCTYPE svg PUBLIC "-//W3C//DTD SVG 1.1//EN" "http://www.w3.org/Graphics/SVG/1.1/DTD/svg11.dtd">
<svg width="100%" height="100%" viewBox="0 0 100 100" version="1.1" xmlns="http://www.w3.org/2000/svg" xmlns:xlink="http://www.w3.org/1999/xlink" xml:space="preserve" xmlns:serif="http://www.serif.com/" style="fill-rule:evenodd;clip-rule:evenodd;stroke-linejoin:round;stroke-miterlimit:2;">
    <g transform="matrix(1.1236,0,0,1.1236,-8.98876,-6.74157)">
        <path d="M52.5,6C77.06,6 97,25.94 97,50.5C97,75.06 77.06,95 52.5,95C27.94,95 8,75.06 8,50.5C8,25.94 27.94,6 52.5,6ZM52.5,9.707C75.014,9.707 93.293,27.986 93.293,50.5C93.293,73.014 75.014,91.293 52.5,91.293C29.986,91.293 11.707,73.014 11.707,50.5C11.707,27.986 29.986,9.707 52.5,9.707Z" style="fill:rgb(183,69,71);"/>
    </g>
    <g transform="matrix(1.16665,-2.876e-32,0,1.16665,-7.16585,-1.9157)">
        <path d="M49.013,30.023L49.013,30C49.317,30.002 49.621,30.008 49.924,30.023C50.607,30.058 51.287,30.131 51.961,30.243C53.996,30.581 55.969,31.273 57.77,32.28C59.595,33.301 61.239,34.641 62.608,36.222C63.937,37.756 65.005,39.514 65.75,41.402C66.408,43.068 66.812,44.832 66.948,46.618C67.081,48.365 66.961,50.131 66.588,51.844C66.182,53.708 65.475,55.504 64.503,57.147C63.402,59.008 61.965,60.667 60.281,62.023C58.525,63.438 56.504,64.519 54.35,65.19C52.107,65.888 49.73,66.137 47.39,65.929C44.881,65.706 42.429,64.949 40.231,63.72C37.901,62.417 35.871,60.594 34.324,58.419C32.881,56.39 31.866,54.064 31.366,51.624C31.215,50.884 31.11,50.135 31.053,49.382C31.024,48.999 31.009,48.616 31.002,48.232C30.999,47.821 31,47.411 31,47L35,47L35,47.994C35.002,48.296 35.01,48.598 35.029,48.9C35.066,49.488 35.14,50.072 35.251,50.651C35.616,52.553 36.383,54.371 37.487,55.962C38.671,57.67 40.235,59.109 42.036,60.145C43.73,61.119 45.624,61.73 47.568,61.928C49.388,62.113 51.243,61.943 52.997,61.421C54.625,60.936 56.159,60.15 57.507,59.116C58.843,58.092 59.993,56.827 60.885,55.399C61.638,54.194 62.205,52.874 62.559,51.498C62.883,50.24 63.029,48.937 62.996,47.638C62.96,46.236 62.715,44.841 62.265,43.512C61.757,42.013 60.991,40.604 60.013,39.36C59.008,38.081 57.78,36.978 56.399,36.115C55.047,35.271 53.55,34.66 51.992,34.321C51.244,34.158 50.486,34.062 49.722,34.018C49.542,34.01 49.542,34.01 49.362,34.005C49.179,34.001 49.175,34.001 49,34L49,42L33,30.5L49,23L49.013,30.023Z" style="fill:rgb(183,69,71);fill-rule:nonzero;"/>
    </g>
</svg>
