<?xml version="1.0" encoding="UTF-8" standalone="no"?>
<!DOCTYPE svg PUBLIC "-//W3C//DTD SVG 1.1//EN" "http://www.w3.org/Graphics/SVG/1.1/DTD/svg11.dtd">
<svg width="100%" height="100%" viewBox="0 0 100 100" version="1.1" xmlns="http://www.w3.org/2000/svg" xmlns:xlink="http://www.w3.org/1999/xlink" xml:space="preserve" xmlns:serif="http://www.serif.com/" style="fill-rule:evenodd;clip-rule:evenodd;stroke-linejoin:round;stroke-miterlimit:2;">
    <g transform="matrix(3.91667,0,0,3.91667,-6165.75,-137.083)">
        <path d="M1582.1,42C1582.04,41.677 1582,41.342 1582,41C1582,38.24 1584.24,36 1587,36C1589.76,36 1592,38.24 1592,41C1592,41.342 1591.97,41.677 1591.9,42L1595,42L1599,58L1575,58L1580,42L1582.1,42ZM1587,39C1588.1,39 1589,39.896 1589,41C1589,42.104 1588.1,43 1587,43C1585.9,43 1585,42.104 1585,41C1585,39.896 1585.9,39 1587,39Z" style="fill:rgb(255,119,110);"/>
    </g>
</svg>
